<svg width="164" height="219" viewBox="0 0 164 219" fill="none" xmlns="http://www.w3.org/2000/svg">
<path d="M0.5 218.5L10.5 208.5L20 199L30 189L40 179L49.5 169.5L59.5 159.5L69.5 149.5L79.5 139.5L89 130L99 120L109 110L118.5 100.5L129 90L138.5 80.5L148.5 70.5C148.5 70.5 153 66 158 61C163 56 163 54.5 163 45.5C163 36.5 163 32 163 32V18.5V0" stroke="black"/>
</svg>
<svg width="164" height="219" viewBox="0 0 164 219" fill="none" xmlns="http://www.w3.org/2000/svg">
<path d="M0.5 218.5L10.5 208.5L20 199L30 189L40 179L49.5 169.5L59.5 159.5L69.5 149.5L79.5 139.5L89 130L99 120L109 110L118.5 100.5L129 90L138.5 80.5L148.5 70.5C148.5 70.5 153 66 158 61C163 56 163 54.5 163 45.5C163 36.5 163 32 163 32V18.5V0" stroke="black"/>
</svg>
